<svg id="Layer_1" data-name="Layer 1" xmlns="http://www.w3.org/2000/svg" xmlns:xlink="http://www.w3.org/1999/xlink" viewBox="0 0 554.76 222.96"><defs><style>.cls-1{fill:#f7f6f6;}.cls-2{fill:#66c1bf;}.cls-3{fill:#1d1d1b;}.cls-4{fill:url(#linear-gradient);}.cls-5{fill:#fff;}</style><linearGradient id="linear-gradient" x1="12.23" y1="174.79" x2="566.99" y2="174.79" gradientUnits="userSpaceOnUse"><stop offset="0" stop-color="#1d1d1b"/><stop offset="1" stop-color="#66c1bf"/></linearGradient></defs><path class="cls-1" d="M242,94.53c0,26.17-27.74,57.77-62.19,57.77a60.9,60.9,0,0,1-34.28-11,69.5,69.5,0,0,1-16.4-15.75,60.75,60.75,0,0,1-8.46-15.25,44.76,44.76,0,0,1-3.08-15.79c0-31.51,39.12-39.93,62.22-39.93.42,0,.88,0,1.33,0a105.06,105.06,0,0,1,22.16,2.63,80.05,80.05,0,0,1,13.84,4.38h0a57,57,0,0,1,9.37,5.08C235.62,72.86,242,81.82,242,94.53Z" transform="translate(-12.23 -24.33)"/><path class="cls-1" d="M456.55,96.05c0,26.17-27.74,57.78-62.19,57.78a60.93,60.93,0,0,1-34.28-11,69.5,69.5,0,0,1-16.4-15.75,61.07,61.07,0,0,1-8.46-15.25,44.71,44.71,0,0,1-3.08-15.79c0-31.51,39.12-39.93,62.22-39.93.42,0,.88,0,1.33,0a105.22,105.22,0,0,1,22.17,2.63,80.25,80.25,0,0,1,13.83,4.39h0a55.8,55.8,0,0,1,9.37,5.07C450.2,74.39,456.55,83.34,456.55,96.05Z" transform="translate(-12.23 -24.33)"/><path class="cls-2" d="M417.86,58.78l-74.18,68.31a61.07,61.07,0,0,1-8.46-15.25l60.47-55.69A105.22,105.22,0,0,1,417.86,58.78Z" transform="translate(-12.23 -24.33)"/><path class="cls-2" d="M431.69,63.17h0a55.8,55.8,0,0,1,9.37,5.07l-81,74.6a69.5,69.5,0,0,1-8-6.38" transform="translate(-12.23 -24.33)"/><path class="cls-2" d="M208.38,58.76,134.2,127.07a60.72,60.72,0,0,1-8.46-15.25l60.47-55.68A105.17,105.17,0,0,1,208.38,58.76Z" transform="translate(-12.23 -24.33)"/><path class="cls-2" d="M231.61,68.22l-81,74.61a69.46,69.46,0,0,1-8-6.39l79.58-73.29h0A56.09,56.09,0,0,1,231.61,68.22Z" transform="translate(-12.23 -24.33)"/><path class="cls-2" d="M394.33,179.65c-51.65,0-90.25-44.14-90.25-83.61a60.19,60.19,0,0,1,.65-8.19c-.07-2-1-13.63-15.07-13.63s-15,11.6-15.07,13.63a61.46,61.46,0,0,1,.55,8.19c0,39.47-38.59,83.61-90.25,83.61S94.64,135.51,94.64,96a61.86,61.86,0,0,1,1.21-11.58h0c0-2.94-3.13-5.72-6.45-8.67-4-3.51-8.46-7.5-8.46-13,0-15.13,11.82-32.5,104-32.5,27.83,0,52.18,7.48,68.75,21.07h72c16.48-13.59,40.8-21.07,68.66-21.07,92.17,0,104,17.37,104,32.5,0,5.5-4.49,9.49-8.46,13-3.31,2.95-6.45,5.73-6.45,8.67h0A62,62,0,0,1,484.58,96C484.58,135.51,446,179.65,394.33,179.65Zm0-126.53c-32.57,0-65.43,13.27-65.43,42.92,0,28.09,28.58,60.75,65.43,60.75S459.79,124.13,459.79,96C459.79,66.39,426.91,53.12,394.33,53.12Zm-209.44,0c-32.58,0-65.46,13.27-65.46,42.92,0,28.09,28.6,60.75,65.46,60.75S250.32,124.13,250.32,96C250.32,66.39,217.46,53.12,184.89,53.12Z" transform="translate(-12.23 -24.33)"/><ellipse class="cls-3" cx="95.04" cy="34.5" rx="9.72" ry="8.95"/><ellipse class="cls-3" cx="459.73" cy="34.5" rx="9.72" ry="8.95"/><path class="cls-3" d="M184.89,50.14c-34.19,0-68.7,14.18-68.7,45.9,0,29.42,30,63.74,68.7,63.74S253.56,125.46,253.56,96C253.56,64.32,219.05,50.14,184.89,50.14Zm0,100.69c-32.66,0-59-30-59-54.79,0-29.16,37.08-36.95,59-36.95s59,7.79,59,37C243.84,120.84,217.56,150.83,184.89,150.83ZM394.33,50.14c-34.16,0-68.67,14.18-68.67,45.9,0,29.42,30,63.74,68.67,63.74S463,125.46,463,96C463,64.32,428.58,50.14,394.33,50.14Zm0,100.69c-32.67,0-58.95-30-58.95-54.79,0-29.16,37.07-36.95,58.95-36.95s59,7.79,59,37C453.31,120.84,427,150.83,394.33,150.83Zm0-100.69c-34.16,0-68.67,14.18-68.67,45.9,0,29.42,30,63.74,68.67,63.74S463,125.46,463,96C463,64.32,428.58,50.14,394.33,50.14Zm0,100.69c-32.67,0-58.95-30-58.95-54.79,0-29.16,37.07-36.95,58.95-36.95s59,7.79,59,37C453.31,120.84,427,150.83,394.33,150.83ZM184.89,50.14c-34.19,0-68.7,14.18-68.7,45.9,0,29.42,30,63.74,68.7,63.74S253.56,125.46,253.56,96C253.56,64.32,219.05,50.14,184.89,50.14Zm0,100.69c-32.66,0-59-30-59-54.79,0-29.16,37.08-36.95,59-36.95s59,7.79,59,37C243.84,120.84,217.56,150.83,184.89,150.83ZM394.33,24.33c-28.42,0-53.5,7.46-71.07,21.07H256.05c-17.66-13.61-42.74-21.07-71.16-21.07-97.34,0-110.47,19.42-110.47,38.46,0,8,6,13.37,10.44,17.28,1.42,1.28,3.79,3.37,4.4,4.45A63.5,63.5,0,0,0,88.16,96c0,42.28,41.35,89.58,96.73,89.58s96.73-47.3,96.73-89.58a65.19,65.19,0,0,0-.55-8.45c.29-4.89,3.18-7.4,8.59-7.4s8.23,2.51,8.55,7.43A66.28,66.28,0,0,0,297.6,96c0,42.28,41.38,89.58,96.73,89.58s96.73-47.3,96.73-89.58A63.22,63.22,0,0,0,490,84.52c.61-1.08,3-3.17,4.4-4.45,4.41-3.91,10.44-9.25,10.44-17.28C504.8,43.75,491.67,24.33,394.33,24.33Zm85.84,60.13s0-.06-.1-.06A59.88,59.88,0,0,1,481.34,96c0,39.54-38.92,80.63-87,80.63s-87-41.09-87-80.63a58,58,0,0,1,.65-8c0-.24-.2-16.77-18.31-16.77S271.35,87.77,271.35,88a58.19,58.19,0,0,1,.55,8c0,39.54-38.95,80.63-87,80.63s-87-41.09-87-80.63A59.88,59.88,0,0,1,99.15,84.4c-.1,0-.1.06-.1.06,0-8.42-14.91-13.22-14.91-21.67s0-29.51,100.75-29.51c27.19,0,51.46,7.43,67.5,21.07h74.54c15.94-13.64,40.21-21.07,67.4-21.07,100.75,0,100.75,21.07,100.75,29.51S480.17,76,480.17,84.46ZM394.33,50.14c-34.16,0-68.67,14.18-68.67,45.9,0,29.42,30,63.74,68.67,63.74S463,125.46,463,96C463,64.32,428.58,50.14,394.33,50.14Zm0,100.69c-32.67,0-58.95-30-58.95-54.79,0-29.16,37.07-36.95,58.95-36.95s59,7.79,59,37C453.31,120.84,427,150.83,394.33,150.83ZM184.89,50.14c-34.19,0-68.7,14.18-68.7,45.9,0,29.42,30,63.74,68.7,63.74S253.56,125.46,253.56,96C253.56,64.32,219.05,50.14,184.89,50.14Zm0,100.69c-32.66,0-59-30-59-54.79,0-29.16,37.08-36.95,59-36.95s59,7.79,59,37C243.84,120.84,217.56,150.83,184.89,150.83Zm0-100.69c-34.19,0-68.7,14.18-68.7,45.9,0,29.42,30,63.74,68.7,63.74S253.56,125.46,253.56,96C253.56,64.32,219.05,50.14,184.89,50.14Zm0,100.69c-32.66,0-59-30-59-54.79,0-29.16,37.08-36.95,59-36.95s59,7.79,59,37C243.84,120.84,217.56,150.83,184.89,150.83ZM394.33,50.14c-34.16,0-68.67,14.18-68.67,45.9,0,29.42,30,63.74,68.67,63.74S463,125.46,463,96C463,64.32,428.58,50.14,394.33,50.14Zm0,100.69c-32.67,0-58.95-30-58.95-54.79,0-29.16,37.07-36.95,58.95-36.95s59,7.79,59,37C453.31,120.84,427,150.83,394.33,150.83Zm0-100.69c-34.16,0-68.67,14.18-68.67,45.9,0,29.42,30,63.74,68.67,63.74S463,125.46,463,96C463,64.32,428.58,50.14,394.33,50.14Zm0,100.69c-32.67,0-58.95-30-58.95-54.79,0-29.16,37.07-36.95,58.95-36.95s59,7.79,59,37C453.31,120.84,427,150.83,394.33,150.83ZM184.89,50.14c-34.19,0-68.7,14.18-68.7,45.9,0,29.42,30,63.74,68.7,63.74S253.56,125.46,253.56,96C253.56,64.32,219.05,50.14,184.89,50.14Zm0,100.69c-32.66,0-59-30-59-54.79,0-29.16,37.08-36.95,59-36.95s59,7.79,59,37C243.84,120.84,217.56,150.83,184.89,150.83Zm0-100.69c-34.19,0-68.7,14.18-68.7,45.9,0,29.42,30,63.74,68.7,63.74S253.56,125.46,253.56,96C253.56,64.32,219.05,50.14,184.89,50.14Zm0,100.69c-32.66,0-59-30-59-54.79,0-29.16,37.08-36.95,59-36.95s59,7.79,59,37C243.84,120.84,217.56,150.83,184.89,150.83ZM394.33,50.14c-34.16,0-68.67,14.18-68.67,45.9,0,29.42,30,63.74,68.67,63.74S463,125.46,463,96C463,64.32,428.58,50.14,394.33,50.14Zm0,100.69c-32.67,0-58.95-30-58.95-54.79,0-29.16,37.07-36.95,58.95-36.95s59,7.79,59,37C453.31,120.84,427,150.83,394.33,150.83Zm0-100.69c-34.16,0-68.67,14.18-68.67,45.9,0,29.42,30,63.74,68.67,63.74S463,125.46,463,96C463,64.32,428.58,50.14,394.33,50.14Zm0,100.69c-32.67,0-58.95-30-58.95-54.79,0-29.16,37.07-36.95,58.95-36.95s59,7.79,59,37C453.31,120.84,427,150.83,394.33,150.83ZM184.89,50.14c-34.19,0-68.7,14.18-68.7,45.9,0,29.42,30,63.74,68.7,63.74S253.56,125.46,253.56,96C253.56,64.32,219.05,50.14,184.89,50.14Zm0,100.69c-32.66,0-59-30-59-54.79,0-29.16,37.08-36.95,59-36.95s59,7.79,59,37C243.84,120.84,217.56,150.83,184.89,150.83Z" transform="translate(-12.23 -24.33)"/><path class="cls-4" d="M530.8,205.68q16.77-10.77,34.32-20.9a3.69,3.69,0,0,0,1.79-3.94,5.09,5.09,0,0,0-3.53-3.44q-35.14-11.21-70.92-19.47,3.21-13.85,6.4-27.7c.52-2.22-1.25-4.46-4-5.09a933.57,933.57,0,0,0-410.46,0c-2.77.63-4.54,2.87-4,5.09q3.19,13.85,6.4,27.7Q51,166.2,15.84,177.4a5.09,5.09,0,0,0-3.53,3.44,3.71,3.71,0,0,0,1.79,3.94q17.55,10.13,34.31,20.9Q40,223.77,32.61,242a3.8,3.8,0,0,0,.87,4.16,4.75,4.75,0,0,0,4.58.92,827.76,827.76,0,0,1,140.12-31.61,4.66,4.66,0,0,0,2-.85.36.36,0,0,0,.26-.11c.08,0,.06-.18.23-.28a3.63,3.63,0,0,0,.85-1.1c.07-.17.24-.27.3-.44a4.08,4.08,0,0,0,.22-1.84q-1.84-14.08-3.68-28.19a860.78,860.78,0,0,1,222.49,0q-1.89,14.1-3.77,28.18a4.37,4.37,0,0,0,.22,1.84c.06.17.23.27.3.44a4.67,4.67,0,0,0,.36.71,1.91,1.91,0,0,0,.49.39,3.11,3.11,0,0,1,.23.28.36.36,0,0,0,.26.11,4.66,4.66,0,0,0,2.05.85,827.76,827.76,0,0,1,140.12,31.61,4.75,4.75,0,0,0,4.58-.92,3.8,3.8,0,0,0,.87-4.16Q539.18,223.78,530.8,205.68ZM44.3,236.59q6.64-15.65,14-31.19a3.68,3.68,0,0,0-1.3-4.69q-14.4-9.48-29.39-18.48,30.27-9.3,61-16.38,3.19,13.85,6.4,27.7c0,.08.11,0,.13.13a3.32,3.32,0,0,0,.42,1c.12.14.14.22.27.35A3.43,3.43,0,0,0,97,196c0,.08.2,0,.31.1a2.1,2.1,0,0,0,1,.34q30.6,5.77,59.87,13.74A835.29,835.29,0,0,0,44.3,236.59Zm362.3-61.38a868.73,868.73,0,0,0-233.8,0l-.09,0q-34.89,4.74-69.44,12.32-6.1-27.78-12.2-55.54a925.45,925.45,0,0,1,397.08,0Q482,159.75,476,187.52q-34.43-7.56-69.25-12.3Zm14.5,35q29.25-7.92,59.87-13.73a4.27,4.27,0,0,0,1-.34c.11-.06.2,0,.31-.1a10.72,10.72,0,0,0,1.18-1c0-.16.15-.22.18-.38s.33-.59.52-1l0-.16q3.21-13.86,6.4-27.7,30.71,7.08,61,16.38-15,9-29.39,18.48a3.7,3.7,0,0,0-1.31,4.69q7.37,15.54,14,31.19A835.5,835.5,0,0,0,421.1,210.19Z" transform="translate(-12.23 -24.33)"/><path class="cls-5" d="M520.91,205.4q7.37,15.54,14,31.19a835.5,835.5,0,0,0-113.82-26.4q29.25-7.92,59.87-13.73a4.27,4.27,0,0,0,1-.34c.11-.06.2,0,.31-.1a10.72,10.72,0,0,0,1.18-1c0-.16.15-.22.18-.38s.33-.59.52-1l0-.16q3.21-13.86,6.4-27.7,30.71,7.08,61,16.38-15,9-29.39,18.48A3.7,3.7,0,0,0,520.91,205.4Z" transform="translate(-12.23 -24.33)"/><path class="cls-5" d="M488.15,132Q482,159.75,476,187.52q-34.43-7.56-69.25-12.3h-.1a868.73,868.73,0,0,0-233.8,0l-.09,0q-34.89,4.74-69.44,12.32-6.1-27.78-12.2-55.54A925.45,925.45,0,0,1,488.15,132Z" transform="translate(-12.23 -24.33)"/><path class="cls-5" d="M58.3,205.4a3.68,3.68,0,0,0-1.3-4.69q-14.4-9.48-29.39-18.48,30.27-9.3,61-16.38,3.19,13.85,6.4,27.7c0,.08.11,0,.13.13a3.32,3.32,0,0,0,.42,1c.12.14.14.22.27.35A3.43,3.43,0,0,0,97,196c0,.08.2,0,.31.1a2.1,2.1,0,0,0,1,.34q30.6,5.77,59.87,13.74A835.29,835.29,0,0,0,44.3,236.59Q50.94,220.95,58.3,205.4Z" transform="translate(-12.23 -24.33)"/><path class="cls-2" d="M160,153.72l-1.26.78a6.08,6.08,0,0,1-1.19.5c-.49.16-1.06.31-1.71.47a40.87,40.87,0,0,1-4.29.8,12,12,0,0,1-3.1,0,6.5,6.5,0,0,1-2.38-.8,10.73,10.73,0,0,1-2.12-1.65l-2.46-2.39c-1.28-1.21-2.19-1.75-2.74-1.61a4.43,4.43,0,0,0-2,1.75l-2.62,3.5c-.77,1-1.07,1.88-.9,2.47a1.53,1.53,0,0,0,1,1.12q4.25.5,8.46,1.05c2.34.3,3.71,1.23,4.11,2.77q.42,1.59-1.52,4.17-2.94,4-5.84,7.95a7,7,0,0,1-3.4,2.86,6.83,6.83,0,0,1-4.59-.72q-7.36-3.42-14.86-6.72c-1.94-.85-3-1.52-3.14-2-.26-.85.07-1.94,1-3.26q2.61-3.75,5.26-7.49l-1,3a11.73,11.73,0,0,0-.47,1.9,2.66,2.66,0,0,0,0,1.07c.18.59,1.13,1.26,2.87,2q6.18,2.76,12.27,5.61c2,.95,3.32,1.36,3.85,1.22.34-.09,1.06-.92,2.17-2.47l1.43-1.94a2.09,2.09,0,0,0,.61-1.66c-.25-.92-1-1.48-2.37-1.66q-3.83-.51-7.67-1a15.78,15.78,0,0,1-1.78-.3,3.31,3.31,0,0,1-1.1-.45,1.76,1.76,0,0,1-.63-.7,5.6,5.6,0,0,1-.41-1.06c-.23-.81.6-2.54,2.51-5.17q6.18-8.5,12.61-16.92a7.39,7.39,0,0,0,.11,2.53c.2.76,1.07,1.87,2.61,3.35q3.27,3.18,6.51,6.4A9.39,9.39,0,0,0,160,153.72Zm-10.31,20.77c.14.53-.21,1.78-1,3.73a8.87,8.87,0,0,0-4.24-1.46c-1.16-.09-1.82-.45-2-1.06s1-2.07,3.27-4.73a2.11,2.11,0,0,0,.81,1c.41.3.84.59,1.27.86l1.22.81A1.6,1.6,0,0,1,149.64,174.49Zm8.39-2c.13.53-.23,1.77-1.07,3.71a8.89,8.89,0,0,0-4.23-1.49c-1.16-.11-1.82-.47-2-1.09s1-2.06,3.32-4.69a2.07,2.07,0,0,0,.79,1c.41.3.84.59,1.27.87s.83.55,1.21.82A1.64,1.64,0,0,1,158,172.46Z" transform="translate(-12.23 -24.33)"/><path class="cls-2" d="M198.33,154.14c-2.78.51-5.55,1-8.33,1.58q-6.09,7.46-12,15a13.23,13.23,0,0,1-7.91,4.65,7.46,7.46,0,0,1-2.32.2,20.61,20.61,0,0,0,3.66-2.3,22.07,22.07,0,0,0,3.77-3.9q4.45-5.7,9-11.36,2.38-2.94,2.06-4.46a19.09,19.09,0,0,0-2.56-3l-2.25-2.43c-1.74-1.87-2.7-3.16-2.86-3.88a5,5,0,0,1,1-4c1.29-1.55,2.59-3.09,3.89-4.64a7.56,7.56,0,0,0,0,2.53c.16.77,1,1.92,2.44,3.47q1.69,1.8,3.36,3.61c1.8,2,2.8,3.5,3,4.56a2.74,2.74,0,0,1,.09.63l4.9-.92C197.71,151,198,152.58,198.33,154.14Z" transform="translate(-12.23 -24.33)"/><path class="cls-2" d="M220.92,152.53c-2,.31-4,.64-5.94,1a8.89,8.89,0,0,1-.69,1c-.3.39-.66.82-1.08,1.3q-2.47,2.76-4.9,5.55a6.64,6.64,0,0,0-1.39-1.79,15.48,15.48,0,0,0-2.26-1.79,13.84,13.84,0,0,0-2.5-1.29,4.09,4.09,0,0,0-2.11-.33l-2.6.49c-.31-1.56-.63-3.12-.94-4.67l2.5-.47c.9-.16,2.64.48,5.22,2l4.46,2.63a2.22,2.22,0,0,0,.37-1.55,8.71,8.71,0,0,0-1.75-2.5l-2.17-2.48q-2.53-2.88-2.75-4a4.94,4.94,0,0,1,1.14-3.94q2-2.28,4-4.53a7.54,7.54,0,0,0-.07,2.52,9.53,9.53,0,0,0,2.35,3.53c1.09,1.23,2.17,2.47,3.25,3.7.36.44.67.81.94,1.12a9.33,9.33,0,0,1,.6.78l5.52-.89C220.37,149.4,220.65,151,220.92,152.53Zm-17.48-19c.11.54-.34,1.75-1.33,3.65a9.17,9.17,0,0,0-4.28-1.71c-1.19-.17-1.85-.57-2-1.19s1.13-2,3.72-4.52a2,2,0,0,0,.76,1c.41.33.83.64,1.25.94s.83.59,1.2.88A1.54,1.54,0,0,1,203.44,133.5Zm8.82-1.51c.1.54-.36,1.76-1.37,3.64a9.19,9.19,0,0,0-4.26-1.75c-1.19-.19-1.84-.59-2-1.21s1.15-2,3.77-4.48a2.08,2.08,0,0,0,.76,1.05c.4.33.81.64,1.24.95s.82.6,1.19.89A1.57,1.57,0,0,1,212.26,132Z" transform="translate(-12.23 -24.33)"/><path class="cls-2" d="M259.58,148.65a6.6,6.6,0,0,1-4,1.85q-16.05,1.92-32,4.42l-.81-4.69,5.25-.81-.39-.49a4.65,4.65,0,0,0-2.72-1.51q2.11-2.41,4.26-4.82c1.65,2,3.3,3.94,4.93,5.92l4.21-.59-2.46-3a5.18,5.18,0,0,0-2.71-1.54q2.15-2.4,4.32-4.78,3.47,4.22,6.87,8.46l4.22-.54q-2.23-2.77-4.5-5.54a5.13,5.13,0,0,0-2.71-1.56q2.19-2.39,4.39-4.74,4.58,5.67,9.05,11.39A12.45,12.45,0,0,0,256,147.6a4.47,4.47,0,0,0,1.1.79,3,3,0,0,0,1.11.31A6.87,6.87,0,0,0,259.58,148.65Zm-27.85-13.17c.09.55-.39,1.75-1.44,3.61a9.07,9.07,0,0,0-4.2-1.84c-1.18-.21-1.82-.63-1.93-1.25s1.19-2,3.84-4.4a2.06,2.06,0,0,0,.73,1.06c.39.34.8.67,1.22,1s.8.62,1.16.92A1.59,1.59,0,0,1,231.73,135.48Zm2.83-6.53c.08.55-.41,1.75-1.46,3.61a9.2,9.2,0,0,0-4.23-1.86c-1.18-.21-1.83-.63-1.93-1.26s1.2-2,3.88-4.38a2.06,2.06,0,0,0,.73,1.06c.39.34.8.67,1.22,1s.81.63,1.17.93A1.59,1.59,0,0,1,234.56,129Zm6,5.3c.08.55-.42,1.75-1.48,3.6a9.3,9.3,0,0,0-4.18-1.89c-1.18-.22-1.82-.64-1.92-1.27s1.2-2,3.88-4.36a2.15,2.15,0,0,0,.72,1.08c.39.34.79.67,1.21,1s.8.63,1.16.94A1.62,1.62,0,0,1,240.55,134.25Z" transform="translate(-12.23 -24.33)"/><path class="cls-2" d="M286.42,149.33c-.45.59-2.26,1-5.42,1.3a31.6,31.6,0,0,1-4.62.13,8.09,8.09,0,0,1-3.06-.73,4.08,4.08,0,0,1-1.8-1.71,7.9,7.9,0,0,1-.8-2.83q-1.16-9.87-2.35-19.74c-.17-1.35-2-4-5.51-8,2-.22,4.62-2.37,7.92-6.44q1.8,15.12,3.51,30.23a10.27,10.27,0,0,0,.66,2.75,5.3,5.3,0,0,0,1.4,2,7.85,7.85,0,0,0,2.39,1.4,18.89,18.89,0,0,0,3.58.95c.49.09,1.08.17,1.76.26S285.54,149.17,286.42,149.33Zm-6.83,4a9.61,9.61,0,0,0-1.85,1.45l-.87,1.1c-.26.35-.39.57-.38.68a1.06,1.06,0,0,0,.57.68l1.86,1.23a1.82,1.82,0,0,1,.89,1.28,1.58,1.58,0,0,1-.42,1.32L277,163.57a4.88,4.88,0,0,1-3.15,1.3,4.13,4.13,0,0,1-1.55-.1,3.25,3.25,0,0,0,1.67-1.15l.86-1.05a2,2,0,0,0,.59-1.14c0-.17-.28-.42-.76-.75l-1.51-1a2.18,2.18,0,0,1-1.1-1.39,2.12,2.12,0,0,1,.79-1.65l2.08-2.05a5.37,5.37,0,0,1,3.24-1.15C278.51,153.38,279,153.36,279.59,153.37Z" transform="translate(-12.23 -24.33)"/><path class="cls-2" d="M318.67,145.76c.09,1.44-.8,3-2.66,4.71q-7.08,6.51-13.95,13.14a13.28,13.28,0,0,1-8.47,3.48,7.41,7.41,0,0,1-2.32-.14c.62-.2,1.26-.43,1.91-.71a16.87,16.87,0,0,0,2-1,22.36,22.36,0,0,0,2.09-1.43,24.72,24.72,0,0,0,2.24-1.93c2-1.92,4-3.84,6.07-5.75.94-.88,1.4-1.55,1.36-2s-.66-1.09-1.89-2c-2-1.49-4.12-3-6.19-4.43-.49-.35-.88-.64-1.18-.87a4.68,4.68,0,0,1-.71-.65,1.83,1.83,0,0,1-.36-.63,4.57,4.57,0,0,1-.14-.83,2.82,2.82,0,0,1,.52-1.92,9.54,9.54,0,0,1,1.32-1.55q6.33-6.15,12.83-12.2a6.24,6.24,0,0,0-.2,2.11c.08,1,.88,2.62,2.39,4.77l2.81,4.05C317.73,142.34,318.57,144.26,318.67,145.76Zm-5.17,1.79a4.18,4.18,0,0,0-.9-2L309,140.7a2.64,2.64,0,0,1-.63-1.33c0-.34,0-.62-.05-.84s0-.39,0-.49c-1.69,1.33-2.5,2.42-2.43,3.26a4.53,4.53,0,0,0,1.09,2.23l3.12,4.14a6.82,6.82,0,0,1,.9,1.43,4.54,4.54,0,0,1,.3,1,1.15,1.15,0,0,1,0,.19.84.84,0,0,0,0,.16C312.82,149.19,313.54,148.22,313.5,147.55Z" transform="translate(-12.23 -24.33)"/><path class="cls-2" d="M395.42,152.31a7.88,7.88,0,0,1-.13,1.24,3.06,3.06,0,0,1-.42,1,4.71,4.71,0,0,1-1,1c-.42.37-1,.81-1.67,1.34-2,1.47-4,3-5.93,4.44a6.44,6.44,0,0,0-1.1-2.12,14.61,14.61,0,0,0-2-2.2,13.21,13.21,0,0,0-2.38-1.73,4.87,4.87,0,0,0-2.23-.71q-18.87-.37-37.68,0,10.23-9,20.88-17.66c.58,1.09,1.16,2.18,1.73,3.27.92,1.7,2.55,2.55,4.9,2.57,3,0,6,.06,9,.12l-2.52,2.12c-.54.45-1,.82-1.36,1.09a4.76,4.76,0,0,1-1.11.62,4.88,4.88,0,0,1-1.21.29c-.45,0-1,.06-1.7.06l-5.45,0a17.11,17.11,0,0,1-2.28-.13,4.68,4.68,0,0,1-1.52-.48,3.87,3.87,0,0,1-1.14-1,16.34,16.34,0,0,1-1.13-1.65l-2.63,2.39a5.79,5.79,0,0,0-1.11,1.44,1.28,1.28,0,0,0,.27.7,2.71,2.71,0,0,0,.67.63,4.86,4.86,0,0,0,.94.47,3,3,0,0,0,1.05.18q10.66,0,21.35.17,1.8,0,4.92,2.59c.76.64,1.48,1.28,2.18,1.94s1.41,1.3,2.13,1.93a2.22,2.22,0,0,0,.67-1.44,8.79,8.79,0,0,0-1.21-2.8c-.54-1-1.09-1.92-1.64-2.87-1.26-2.22-1.9-3.7-1.9-4.44a5,5,0,0,1,1.92-3.63q2.4-1.83,4.83-3.64a7.38,7.38,0,0,0-.58,2.46,9.45,9.45,0,0,0,1.59,3.93l2.44,4.28A9.87,9.87,0,0,1,395.42,152.31Zm-21.25,11.84c0,.55-.66,1.67-1.95,3.34a8.82,8.82,0,0,0-3.74-2.48c-1.09-.39-1.64-.91-1.65-1.54s1.45-1.76,4.38-3.74a2.09,2.09,0,0,0,.52,1.17c.33.39.67.78,1,1.15s.67.74,1,1.1A1.59,1.59,0,0,1,374.17,164.15Z" transform="translate(-12.23 -24.33)"/><path class="cls-2" d="M433,161.11q-4.23-.36-8.46-.66-7.84,5.6-15.5,11.32a13.3,13.3,0,0,1-8.85,2.41,7.48,7.48,0,0,1-2.29-.42,20.2,20.2,0,0,0,4.14-1.26,22.17,22.17,0,0,0,4.66-2.77q5.79-4.33,11.69-8.59c2.05-1.48,3.11-2.73,3.16-3.77a18.32,18.32,0,0,0-1.68-3.58l-1.53-2.94c-1.19-2.26-1.78-3.76-1.75-4.5a4.94,4.94,0,0,1,2.06-3.56c1.65-1.15,3.31-2.31,5-3.45a7.74,7.74,0,0,0-.67,2.43,9.42,9.42,0,0,0,1.45,4c.77,1.46,1.54,2.91,2.3,4.37q1.83,3.59,1.72,5.2a3.09,3.09,0,0,1-.08.63l5,.39C433.26,157.94,433.15,159.52,433,161.11Z" transform="translate(-12.23 -24.33)"/><path class="cls-2" d="M463.41,171.48a4.09,4.09,0,0,1-1.83.14,20.62,20.62,0,0,1-13.05-6.33q-9-.91-17.91-1.62c.1-1.59.2-3.17.31-4.76q7.08.57,14.17,1.25c-1-1.5-2-3-2.94-4.49a8.75,8.75,0,0,0-2.34-2.5,5.28,5.28,0,0,0-2.47-1,8.36,8.36,0,0,0-3.33.42q3.66-2.59,7.37-5.16c1.74-1.2,3-1.76,3.77-1.69q.88.08,2.19,2.7,3.34,6.68,6.56,13.37,2.82,5.93,7.19,8.47A15.49,15.49,0,0,1,463.41,171.48Zm-18.49-.27c-.05.55-.79,1.61-2.23,3.17a8.82,8.82,0,0,0-3.54-2.78c-1.07-.48-1.58-1-1.53-1.67s1.59-1.63,4.69-3.37a2.06,2.06,0,0,0,.43,1.21c.3.42.6.83.92,1.23s.62.8.89,1.17A1.65,1.65,0,0,1,444.92,171.21Z" transform="translate(-12.23 -24.33)"/></svg>