<svg id="Layer_1" data-name="Layer 1" xmlns="http://www.w3.org/2000/svg" xmlns:xlink="http://www.w3.org/1999/xlink" viewBox="0 0 554.76 222.96"><defs><style>.cls-1{fill:#f7f6f6;}.cls-2{fill:#66c1bf;}.cls-3{fill:#1d1d1b;}.cls-4{fill:url(#linear-gradient);}.cls-5{fill:#fff;}</style><linearGradient id="linear-gradient" x1="12.23" y1="174.79" x2="566.99" y2="174.79" gradientUnits="userSpaceOnUse"><stop offset="0" stop-color="#1d1d1b"/><stop offset="1" stop-color="#66c1bf"/></linearGradient></defs><path class="cls-1" d="M242,94.53c0,26.17-27.74,57.77-62.19,57.77a60.9,60.9,0,0,1-34.28-11,69.5,69.5,0,0,1-16.4-15.75,60.75,60.75,0,0,1-8.46-15.25,44.76,44.76,0,0,1-3.08-15.79c0-31.51,39.12-39.93,62.22-39.93.42,0,.88,0,1.33,0a105.06,105.06,0,0,1,22.16,2.63,80.05,80.05,0,0,1,13.84,4.38h0a57,57,0,0,1,9.37,5.08C235.62,72.86,242,81.82,242,94.53Z" transform="translate(-12.23 -24.33)"/><path class="cls-1" d="M456.55,96.05c0,26.17-27.74,57.78-62.19,57.78a60.93,60.93,0,0,1-34.28-11,69.5,69.5,0,0,1-16.4-15.75,61.07,61.07,0,0,1-8.46-15.25,44.71,44.71,0,0,1-3.08-15.79c0-31.51,39.12-39.93,62.22-39.93.42,0,.88,0,1.33,0a105.22,105.22,0,0,1,22.17,2.63,80.25,80.25,0,0,1,13.83,4.39h0a55.8,55.8,0,0,1,9.37,5.07C450.2,74.39,456.55,83.34,456.55,96.05Z" transform="translate(-12.23 -24.33)"/><path class="cls-2" d="M417.86,58.78l-74.18,68.31a61.07,61.07,0,0,1-8.46-15.25l60.47-55.69A105.22,105.22,0,0,1,417.86,58.78Z" transform="translate(-12.23 -24.33)"/><path class="cls-2" d="M431.69,63.17h0a55.8,55.8,0,0,1,9.37,5.07l-81,74.6a69.5,69.5,0,0,1-8-6.38" transform="translate(-12.23 -24.33)"/><path class="cls-2" d="M208.38,58.76,134.2,127.07a60.72,60.72,0,0,1-8.46-15.25l60.47-55.68A105.17,105.17,0,0,1,208.38,58.76Z" transform="translate(-12.23 -24.33)"/><path class="cls-2" d="M231.61,68.22l-81,74.61a69.46,69.46,0,0,1-8-6.39l79.58-73.29h0A56.09,56.09,0,0,1,231.61,68.22Z" transform="translate(-12.23 -24.33)"/><path class="cls-2" d="M394.33,179.65c-51.65,0-90.25-44.14-90.25-83.61a60.19,60.19,0,0,1,.65-8.19c-.07-2-1-13.63-15.07-13.63s-15,11.6-15.07,13.63a61.46,61.46,0,0,1,.55,8.19c0,39.47-38.59,83.61-90.25,83.61S94.64,135.51,94.64,96a61.86,61.86,0,0,1,1.21-11.58h0c0-2.94-3.13-5.72-6.45-8.67-4-3.51-8.46-7.5-8.46-13,0-15.13,11.82-32.5,104-32.5,27.83,0,52.18,7.48,68.75,21.07h72c16.48-13.59,40.8-21.07,68.66-21.07,92.17,0,104,17.37,104,32.5,0,5.5-4.49,9.49-8.46,13-3.31,2.95-6.45,5.73-6.45,8.67h0A62,62,0,0,1,484.58,96C484.58,135.51,446,179.65,394.33,179.65Zm0-126.53c-32.57,0-65.43,13.27-65.43,42.92,0,28.09,28.58,60.75,65.43,60.75S459.79,124.13,459.79,96C459.79,66.39,426.91,53.12,394.33,53.12Zm-209.44,0c-32.58,0-65.46,13.27-65.46,42.92,0,28.09,28.6,60.75,65.46,60.75S250.32,124.13,250.32,96C250.32,66.39,217.46,53.12,184.89,53.12Z" transform="translate(-12.23 -24.33)"/><ellipse class="cls-3" cx="95.04" cy="34.5" rx="9.72" ry="8.95"/><ellipse class="cls-3" cx="459.73" cy="34.5" rx="9.72" ry="8.95"/><path class="cls-3" d="M184.89,50.14c-34.19,0-68.7,14.18-68.7,45.9,0,29.42,30,63.74,68.7,63.74S253.56,125.46,253.56,96C253.56,64.32,219.05,50.14,184.89,50.14Zm0,100.69c-32.66,0-59-30-59-54.79,0-29.16,37.08-36.95,59-36.95s59,7.79,59,37C243.84,120.84,217.56,150.83,184.89,150.83ZM394.33,50.14c-34.16,0-68.67,14.18-68.67,45.9,0,29.42,30,63.74,68.67,63.74S463,125.46,463,96C463,64.32,428.58,50.14,394.33,50.14Zm0,100.69c-32.67,0-58.95-30-58.95-54.79,0-29.16,37.07-36.95,58.95-36.95s59,7.79,59,37C453.31,120.84,427,150.83,394.33,150.83Zm0-100.69c-34.16,0-68.67,14.18-68.67,45.9,0,29.42,30,63.74,68.67,63.74S463,125.46,463,96C463,64.32,428.58,50.14,394.33,50.14Zm0,100.69c-32.67,0-58.95-30-58.95-54.79,0-29.16,37.07-36.95,58.95-36.95s59,7.79,59,37C453.31,120.84,427,150.83,394.33,150.83ZM184.89,50.14c-34.19,0-68.7,14.18-68.7,45.9,0,29.42,30,63.74,68.7,63.74S253.56,125.46,253.56,96C253.56,64.32,219.05,50.14,184.89,50.14Zm0,100.69c-32.66,0-59-30-59-54.79,0-29.16,37.08-36.95,59-36.95s59,7.79,59,37C243.84,120.84,217.56,150.83,184.89,150.83ZM394.33,24.33c-28.42,0-53.5,7.46-71.07,21.07H256.05c-17.66-13.61-42.74-21.07-71.16-21.07-97.34,0-110.47,19.42-110.47,38.46,0,8,6,13.37,10.44,17.28,1.42,1.28,3.79,3.37,4.4,4.45A63.5,63.5,0,0,0,88.16,96c0,42.28,41.35,89.58,96.73,89.58s96.73-47.3,96.73-89.58a65.19,65.19,0,0,0-.55-8.45c.29-4.89,3.18-7.4,8.59-7.4s8.23,2.51,8.55,7.43A66.28,66.28,0,0,0,297.6,96c0,42.28,41.38,89.58,96.73,89.58s96.73-47.3,96.73-89.58A63.22,63.22,0,0,0,490,84.52c.61-1.08,3-3.17,4.4-4.45,4.41-3.91,10.44-9.25,10.44-17.28C504.8,43.75,491.67,24.33,394.33,24.33Zm85.84,60.13s0-.06-.1-.06A59.88,59.88,0,0,1,481.34,96c0,39.54-38.92,80.63-87,80.63s-87-41.09-87-80.63a58,58,0,0,1,.65-8c0-.24-.2-16.77-18.31-16.77S271.35,87.77,271.35,88a58.19,58.19,0,0,1,.55,8c0,39.54-38.95,80.63-87,80.63s-87-41.09-87-80.63A59.88,59.88,0,0,1,99.15,84.4c-.1,0-.1.06-.1.06,0-8.42-14.91-13.22-14.91-21.67s0-29.51,100.75-29.51c27.19,0,51.46,7.43,67.5,21.07h74.54c15.94-13.64,40.21-21.07,67.4-21.07,100.75,0,100.75,21.07,100.75,29.51S480.17,76,480.17,84.46ZM394.33,50.14c-34.16,0-68.67,14.18-68.67,45.9,0,29.42,30,63.74,68.67,63.74S463,125.46,463,96C463,64.32,428.58,50.14,394.33,50.14Zm0,100.69c-32.67,0-58.95-30-58.95-54.79,0-29.16,37.07-36.95,58.95-36.95s59,7.79,59,37C453.31,120.84,427,150.83,394.33,150.83ZM184.89,50.14c-34.19,0-68.7,14.18-68.7,45.9,0,29.42,30,63.74,68.7,63.74S253.56,125.46,253.56,96C253.56,64.32,219.05,50.14,184.89,50.14Zm0,100.69c-32.66,0-59-30-59-54.79,0-29.16,37.08-36.95,59-36.95s59,7.79,59,37C243.84,120.84,217.56,150.83,184.89,150.83Zm0-100.69c-34.19,0-68.7,14.18-68.7,45.9,0,29.42,30,63.74,68.7,63.74S253.56,125.46,253.56,96C253.56,64.32,219.05,50.14,184.89,50.14Zm0,100.69c-32.66,0-59-30-59-54.79,0-29.16,37.08-36.95,59-36.95s59,7.79,59,37C243.84,120.84,217.56,150.83,184.89,150.83ZM394.33,50.14c-34.16,0-68.67,14.18-68.67,45.9,0,29.42,30,63.74,68.67,63.74S463,125.46,463,96C463,64.32,428.58,50.14,394.33,50.14Zm0,100.69c-32.67,0-58.95-30-58.95-54.79,0-29.16,37.07-36.95,58.95-36.95s59,7.79,59,37C453.31,120.84,427,150.83,394.33,150.83Zm0-100.69c-34.16,0-68.67,14.18-68.67,45.9,0,29.42,30,63.74,68.67,63.74S463,125.46,463,96C463,64.32,428.58,50.14,394.33,50.14Zm0,100.69c-32.67,0-58.95-30-58.95-54.79,0-29.16,37.07-36.95,58.95-36.95s59,7.79,59,37C453.31,120.84,427,150.83,394.33,150.83ZM184.89,50.14c-34.19,0-68.7,14.18-68.7,45.9,0,29.42,30,63.74,68.7,63.74S253.56,125.46,253.56,96C253.56,64.32,219.05,50.14,184.89,50.14Zm0,100.69c-32.66,0-59-30-59-54.79,0-29.16,37.08-36.95,59-36.95s59,7.79,59,37C243.84,120.84,217.56,150.83,184.89,150.83Zm0-100.69c-34.19,0-68.7,14.18-68.7,45.9,0,29.42,30,63.74,68.7,63.74S253.56,125.46,253.56,96C253.56,64.32,219.05,50.14,184.89,50.14Zm0,100.69c-32.66,0-59-30-59-54.79,0-29.16,37.08-36.95,59-36.95s59,7.79,59,37C243.84,120.84,217.56,150.83,184.89,150.83ZM394.33,50.14c-34.16,0-68.67,14.18-68.67,45.9,0,29.42,30,63.74,68.67,63.74S463,125.46,463,96C463,64.32,428.58,50.14,394.33,50.14Zm0,100.69c-32.67,0-58.95-30-58.95-54.79,0-29.16,37.07-36.95,58.95-36.95s59,7.79,59,37C453.31,120.84,427,150.83,394.33,150.83Zm0-100.69c-34.16,0-68.67,14.18-68.67,45.9,0,29.42,30,63.74,68.67,63.74S463,125.46,463,96C463,64.32,428.58,50.14,394.33,50.14Zm0,100.69c-32.67,0-58.95-30-58.95-54.79,0-29.16,37.07-36.95,58.95-36.95s59,7.79,59,37C453.31,120.84,427,150.83,394.33,150.83ZM184.89,50.14c-34.19,0-68.7,14.18-68.7,45.9,0,29.42,30,63.74,68.7,63.74S253.56,125.46,253.56,96C253.56,64.32,219.05,50.14,184.89,50.14Zm0,100.69c-32.66,0-59-30-59-54.79,0-29.16,37.08-36.95,59-36.95s59,7.79,59,37C243.84,120.84,217.56,150.83,184.89,150.83Z" transform="translate(-12.23 -24.33)"/><path class="cls-4" d="M530.8,205.68q16.77-10.77,34.32-20.9a3.69,3.69,0,0,0,1.79-3.94,5.09,5.09,0,0,0-3.53-3.44q-35.14-11.21-70.92-19.47,3.21-13.85,6.4-27.7c.52-2.22-1.25-4.46-4-5.09a933.57,933.57,0,0,0-410.46,0c-2.77.63-4.54,2.87-4,5.09q3.19,13.85,6.4,27.7Q51,166.2,15.84,177.4a5.09,5.09,0,0,0-3.53,3.44,3.71,3.71,0,0,0,1.79,3.94q17.55,10.13,34.31,20.9Q40,223.77,32.61,242a3.8,3.8,0,0,0,.87,4.16,4.75,4.75,0,0,0,4.58.92,827.76,827.76,0,0,1,140.12-31.61,4.66,4.66,0,0,0,2-.85.36.36,0,0,0,.26-.11c.08,0,.06-.18.23-.28a3.63,3.63,0,0,0,.85-1.1c.07-.17.24-.27.3-.44a4.08,4.08,0,0,0,.22-1.84q-1.84-14.08-3.68-28.19a860.78,860.78,0,0,1,222.49,0q-1.89,14.1-3.77,28.18a4.37,4.37,0,0,0,.22,1.84c.06.17.23.27.3.44a4.67,4.67,0,0,0,.36.71,1.91,1.91,0,0,0,.49.39,3.11,3.11,0,0,1,.23.28.36.36,0,0,0,.26.11,4.66,4.66,0,0,0,2.05.85,827.76,827.76,0,0,1,140.12,31.61,4.75,4.75,0,0,0,4.58-.92,3.8,3.8,0,0,0,.87-4.16Q539.18,223.78,530.8,205.68ZM44.3,236.59q6.64-15.65,14-31.19a3.68,3.68,0,0,0-1.3-4.69q-14.4-9.48-29.39-18.48,30.27-9.3,61-16.38,3.19,13.85,6.4,27.7c0,.08.11,0,.13.13a3.32,3.32,0,0,0,.42,1c.12.14.14.22.27.35A3.43,3.43,0,0,0,97,196c0,.08.2,0,.31.1a2.1,2.1,0,0,0,1,.34q30.6,5.77,59.87,13.74A835.29,835.29,0,0,0,44.3,236.59Zm362.3-61.38a868.73,868.73,0,0,0-233.8,0l-.09,0q-34.89,4.74-69.44,12.32-6.1-27.78-12.2-55.54a925.45,925.45,0,0,1,397.08,0Q482,159.75,476,187.52q-34.43-7.56-69.25-12.3Zm14.5,35q29.25-7.92,59.87-13.73a4.27,4.27,0,0,0,1-.34c.11-.06.2,0,.31-.1a10.72,10.72,0,0,0,1.18-1c0-.16.15-.22.18-.38s.33-.59.52-1l0-.16q3.21-13.86,6.4-27.7,30.71,7.08,61,16.38-15,9-29.39,18.48a3.7,3.7,0,0,0-1.31,4.69q7.37,15.54,14,31.19A835.5,835.5,0,0,0,421.1,210.19Z" transform="translate(-12.23 -24.33)"/><path class="cls-5" d="M520.91,205.4q7.37,15.54,14,31.19a835.5,835.5,0,0,0-113.82-26.4q29.25-7.92,59.87-13.73a4.27,4.27,0,0,0,1-.34c.11-.06.2,0,.31-.1a10.72,10.72,0,0,0,1.18-1c0-.16.15-.22.18-.38s.33-.59.52-1l0-.16q3.21-13.86,6.4-27.7,30.71,7.08,61,16.38-15,9-29.39,18.48A3.7,3.7,0,0,0,520.91,205.4Z" transform="translate(-12.23 -24.33)"/><path class="cls-5" d="M488.15,132Q482,159.75,476,187.52q-34.43-7.56-69.25-12.3h-.1a868.73,868.73,0,0,0-233.8,0l-.09,0q-34.89,4.74-69.44,12.32-6.1-27.78-12.2-55.54A925.45,925.45,0,0,1,488.15,132Z" transform="translate(-12.23 -24.33)"/><path class="cls-5" d="M58.3,205.4a3.68,3.68,0,0,0-1.3-4.69q-14.4-9.48-29.39-18.48,30.27-9.3,61-16.38,3.19,13.85,6.4,27.7c0,.08.11,0,.13.13a3.32,3.32,0,0,0,.42,1c.12.14.14.22.27.35A3.43,3.43,0,0,0,97,196c0,.08.2,0,.31.1a2.1,2.1,0,0,0,1,.34q30.6,5.77,59.87,13.74A835.29,835.29,0,0,0,44.3,236.59Q50.94,220.95,58.3,205.4Z" transform="translate(-12.23 -24.33)"/><path class="cls-2" d="M156.44,140.89a11.44,11.44,0,0,0-3.82-5.17c-1.38-.75-3-.83-7.31-.15l-2.94.47,4.08,24.9c.75,4.56,1.48,4.72,7.26,4.22L154,167q-10.55,1.65-21,3.55l-.34-1.88c5.38-1.37,6-1.77,5.23-6.32l-4.32-24.86-2.13.38c-6,1.07-7,1.93-7.76,2.93-1,1.11-1.48,3.1-1.81,5.92l-2.42.46c-.49-4-.88-8-1.26-10.68l1.64-.31c1.26,1,2.16,1,4.08.62q13.65-2.52,27.36-4.62A5.27,5.27,0,0,0,155,130.3l1.56-.23c.38,2.24,1.49,7,2.29,10.36Z" transform="translate(-12.23 -24.33)"/><path class="cls-2" d="M206.28,161c-.3,0-1,.06-1.73.13-8.22.48-10.89-.75-13.86-3.81-1.94-2-4-4.64-6.22-7.25a4.78,4.78,0,0,0-4.69-1.68l-1.27.16,1,7.67c.55,4.36,1.25,4.74,6.18,4.59.08.63.15,1.26.23,1.89q-9.72,1.16-19.41,2.53l-.27-1.89c4.72-1.1,5.48-1.68,4.89-6L168.36,137c-.58-4.24-1.33-4.78-6.24-4.43-.09-.63-.17-1.25-.26-1.88q9.27-1.32,18.57-2.43c6-.72,9.51-.58,12.4.62A8,8,0,0,1,198,135.5c.48,4.74-3.1,7.68-7.29,9.54,1.14,1.46,3.94,4.73,6.15,7a50.43,50.43,0,0,0,5.6,5.32,8.92,8.92,0,0,0,4.06,1.81C206.43,159.74,206.36,160.35,206.28,161ZM179.87,146.2c2.85-.35,5.14-1,6.47-2.21a7.3,7.3,0,0,0,2.45-6.73c-.63-5.68-5-7.29-8.78-6.83a5.85,5.85,0,0,0-3,1c-.41.39-.47,1-.34,2l1.62,13Z" transform="translate(-12.23 -24.33)"/><path class="cls-2" d="M243.66,124.76c-4.29.59-5.62,1.8-7.9,5a115.54,115.54,0,0,0-6.8,10.82,5.53,5.53,0,0,0-.9,3.73l.48,6.87c.34,4.9.79,5.18,6.62,5.18l.12,1.86q-10.51.66-21,1.56l-.16-1.86c5.51-.84,6.14-1.2,5.75-6.1-.15-2-.31-3.89-.46-5.84a4.56,4.56,0,0,0-1.15-2.85c-2-2.74-4.81-6.19-9.21-11.24-2.86-3.38-4.09-3.86-7.85-4L201,126q9.6-.93,19.22-1.67c0,.64.09,1.27.14,1.9-4.4.82-4.33,1.59-3,3.36,2.61,3.46,5.71,7.19,8.6,11,1.71-3.28,4.8-8.52,6.17-11.68,1-2.26.9-3-4.07-3.22-.05-.64-.09-1.27-.13-1.9q7.8-.52,15.6-.92C243.6,123.49,243.63,124.12,243.66,124.76Z" transform="translate(-12.23 -24.33)"/><path class="cls-2" d="M311.22,135.76c-4,.24-5.48,1-7.9,3.44-1.84,1.87-3.59,3.94-5.63,6.23a60.84,60.84,0,0,1,11.16,11.45l-.36.58c-6.36-.06-10.24-1.37-11.06-2.07s-2.76-2.55-5.24-4.58c-4.06,4.39-8.28,6.45-12.48,6.5-8.77.11-13.68-5.12-13.81-9.74s3.2-6.57,8.85-9.93c-2.6-2-4.34-4.31-4.41-7.46-.11-4.8,5.39-9.17,12-9.22,6.77-.06,11.35,3.35,11.32,7.85,0,1.87-1.08,3.18-2.82,4.35-1.38,1-3.24,2-5.28,3.19,1.78,1.17,5.6,3.83,10.32,7.56a34.94,34.94,0,0,0,3.3-4.73c1.35-2.25,1-3.07-3.64-3.66,0-.6,0-1.19,0-1.79q7.88,0,15.73.24Zm-28.39,16.58a12.29,12.29,0,0,0,7.66-3.14,164.57,164.57,0,0,0-14-10.19,8.13,8.13,0,0,0-2.59,5.82c.1,5.2,4.45,7.54,8.88,7.51Zm-1.17-29.29a4.68,4.68,0,0,0-4.43,4.85c0,2.67,1.81,4.36,6.36,7.18a7.82,7.82,0,0,0,3.35-6.6c0-2.79-1.86-5.46-5.19-5.43Z" transform="translate(-12.23 -24.33)"/><path class="cls-2" d="M354.16,140.24c7.69,1.26,12.49,4.19,12,9.3-.3,3.5-2.9,6.1-6.75,7.45-3.37,1.23-8.31,1.67-13.72,1.33s-11-.66-16.52-.9c0-.64.05-1.27.08-1.91,5-.17,5.67-.42,5.91-5l1.05-20.41c.24-4.56-.42-4.94-5.11-5.52,0-.64.05-1.27.08-1.91q9.84.45,19.66,1.11c5.13.35,8.41,1.12,10.86,2.67a6.81,6.81,0,0,1,3.48,6.42c-.44,5.18-6.22,6.72-11,7.11Zm-8.24-1.43c6.36.4,9.42-1.38,9.74-5.73.37-4.86-3.09-7-6.77-7.18a5.88,5.88,0,0,0-3.09.5c-.48.37-.66,1.13-.73,2.23-.2,3.36-.41,6.72-.61,10.09Zm-2.2,12c-.24,4,1,5.2,4.55,5.36s7.87-1.68,8.27-6.83c.38-5-3.3-7.87-10.94-8.35l-1.28-.08Z" transform="translate(-12.23 -24.33)"/><path class="cls-2" d="M419,132.82c-3.69-.35-5.54.59-6.15,2.43a32.08,32.08,0,0,0-1.56,7.1c-.26,1.92-.52,3.85-.79,5.77-.78,5.77-2.48,10-6.61,12.75a19.37,19.37,0,0,1-12.43,2.41c-4.3-.5-8.31-1.74-11.18-4-3.46-2.79-4.94-7-4.34-13.28q.58-6.13,1.19-12.28c.5-5.18-.18-5.58-5.17-6.41l.18-1.9q10.21.93,20.41,2.08c-.07.64-.15,1.27-.22,1.9-5-.2-5.8.06-6.35,5.23q-.58,5.53-1.18,11.07c-.85,8.05,2.21,13.37,9.29,14.21,8,1,12-3.62,13.17-12.56l.72-5.44a28.43,28.43,0,0,0,.24-7.32c-.11-1.9-1.52-3.24-6.05-4,.08-.63.15-1.26.23-1.89q8.44,1.05,16.87,2.26Z" transform="translate(-12.23 -24.33)"/><path class="cls-2" d="M462.52,140.14c-4.32-.46-5.91.4-8.89,2.94a118.72,118.72,0,0,0-9.21,8.88,5.48,5.48,0,0,0-1.76,3.41q-.6,3.39-1.18,6.78c-.84,4.84-.47,5.23,5.22,6.62-.11.61-.23,1.22-.34,1.84q-10.39-1.89-20.83-3.52c.1-.61.2-1.23.29-1.84,5.56.5,6.26.3,7.06-4.55.31-1.93.63-3.85.94-5.78a4.5,4.5,0,0,0-.44-3c-1.33-3.15-3.2-7.16-6.27-13.12-2-4-3.06-4.72-6.69-5.73l.27-1.89q9.57,1.4,19.1,3c-.1.62-.21,1.25-.31,1.88-4.48-.26-4.6.5-3.7,2.54,1.71,4,3.84,8.35,5.74,12.73,2.46-2.78,6.71-7.12,8.81-9.87,1.49-2,1.59-2.69-3.2-4.1.1-.62.21-1.25.32-1.87q7.73,1.35,15.44,2.84C462.77,138.89,462.64,139.51,462.52,140.14Z" transform="translate(-12.23 -24.33)"/></svg>